<svg xmlns="http://www.w3.org/2000/svg" width="60" height="60" viewBox="0 0 60 60" fill="none">
	<rect width="60" height="60" rx="30" fill="#93D2A0" fill-opacity="0.2" />
	<g filter="url(#filter0_d_2899_77774)">
		<mask id="mask0_2899_77774" style="mask-type:luminance" maskUnits="userSpaceOnUse" x="14" y="14" width="32" height="32">
			<path d="M45.5512 31.4787C45.8553 31.9359 46 32.4482 46 32.9548C46 33.8695 45.5272 34.7642 44.6664 35.2745C43.8318 35.7697 43.3328 36.6524 43.3328 37.5915C43.3328 37.7066 43.3403 37.8228 43.3557 37.9393C43.3713 38.0574 43.3789 38.1749 43.3789 38.2907C43.3789 39.6648 42.3117 40.8485 40.8766 40.9831C40.3312 41.0345 39.8272 41.2411 39.4162 41.5618C39.0051 41.8824 38.6875 42.3181 38.5154 42.8272C38.1292 43.9674 37.0464 44.6844 35.889 44.6844C35.5717 44.6844 35.2486 44.6303 34.9327 44.5166C34.6208 44.4042 34.2971 44.3493 33.9763 44.3493C33.2402 44.3493 32.519 44.6373 31.988 45.1747C31.4444 45.7251 30.7222 46 30 46C29.2778 46 28.5556 45.7251 28.012 45.1747C27.4811 44.6373 26.7599 44.3493 26.0237 44.3493C25.703 44.3493 25.3792 44.4042 25.0674 44.5166C24.7514 44.6303 24.4283 44.6844 24.111 44.6844C22.9536 44.6844 21.8708 43.9674 21.4847 42.8272C21.3126 42.3181 20.9949 41.8824 20.5839 41.5618C20.1729 41.2411 19.6688 41.0345 19.1235 40.9831C17.6883 40.8485 16.6212 39.6648 16.6212 38.2907C16.6212 38.1749 16.6287 38.0574 16.6444 37.9393C16.6597 37.8228 16.6672 37.7066 16.6672 37.5915C16.6672 36.6524 16.1683 35.7697 15.3336 35.2745C14.4727 34.7642 14 33.8695 14 32.9548C14 32.4482 14.1448 31.9359 14.4488 31.4787C14.7477 31.0292 14.8973 30.5146 14.8973 30C14.8973 29.4854 14.7477 28.9708 14.4488 28.5213C14.1448 28.0641 14 27.5518 14 27.0452C14 26.1305 14.4727 25.2358 15.3336 24.7255C16.1683 24.2303 16.6672 23.3476 16.6672 22.4085C16.6672 22.2934 16.6597 22.1772 16.6444 22.0607C16.6287 21.9426 16.6212 21.8251 16.6212 21.7093C16.6212 20.3352 17.6883 19.1515 19.1235 19.017C19.6688 18.9655 20.1729 18.7589 20.5839 18.4382C20.9949 18.1176 21.3126 17.6819 21.4847 17.1728C21.8708 16.0322 22.9536 15.3156 24.111 15.3156C24.4283 15.3156 24.7514 15.3697 25.0674 15.4835C25.3792 15.5958 25.703 15.6507 26.0237 15.6507C26.7599 15.6507 27.4811 15.3627 28.012 14.8253C28.5556 14.2749 29.2778 14 30 14C30.7222 14 31.4444 14.2749 31.988 14.8253C32.7501 15.5965 33.9048 15.8546 34.9327 15.4835C35.2486 15.3697 35.5717 15.3156 35.889 15.3156C37.0464 15.3156 38.1292 16.0322 38.5154 17.1728C38.6875 17.6819 39.0051 18.1176 39.4162 18.4382C39.8272 18.7589 40.3312 18.9655 40.8766 19.017C42.3117 19.1515 43.3789 20.3352 43.3789 21.7093C43.3789 21.8251 43.3713 21.9426 43.3557 22.0607C43.3403 22.1772 43.3328 22.2934 43.3328 22.4085C43.3328 23.3476 43.8318 24.2303 44.6664 24.7255C45.5272 25.2358 46 26.1305 46 27.0452C46 27.5518 45.8553 28.0641 45.5512 28.5213C45.2523 28.9708 45.1028 29.4854 45.1028 30C45.1028 30.5146 45.2523 31.0292 45.5512 31.4787Z" fill="white" />
		</mask>
		<g mask="url(#mask0_2899_77774)">
			<path d="M45.5512 31.4787C45.8553 31.9359 46 32.4482 46 32.9548C46 33.8695 45.5272 34.7642 44.6664 35.2745C43.8318 35.7697 43.3328 36.6524 43.3328 37.5915C43.3328 37.7066 43.3403 37.8228 43.3557 37.9393C43.3713 38.0574 43.3789 38.1749 43.3789 38.2907C43.3789 39.6648 42.3117 40.8485 40.8766 40.9831C40.3312 41.0345 39.8272 41.2411 39.4162 41.5618C39.0051 41.8824 38.6875 42.3181 38.5154 42.8272C38.1292 43.9674 37.0464 44.6844 35.889 44.6844C35.5717 44.6844 35.2486 44.6303 34.9327 44.5166C34.6208 44.4042 34.2971 44.3493 33.9763 44.3493C33.2402 44.3493 32.519 44.6373 31.988 45.1747C31.4444 45.7251 30.7222 46 30 46C29.2778 46 28.5556 45.7251 28.012 45.1747C27.4811 44.6373 26.7599 44.3493 26.0237 44.3493C25.703 44.3493 25.3792 44.4042 25.0674 44.5166C24.7514 44.6303 24.4283 44.6844 24.111 44.6844C22.9536 44.6844 21.8708 43.9674 21.4847 42.8272C21.3126 42.3181 20.9949 41.8824 20.5839 41.5618C20.1729 41.2411 19.6688 41.0345 19.1235 40.9831C17.6883 40.8485 16.6212 39.6648 16.6212 38.2907C16.6212 38.1749 16.6287 38.0574 16.6444 37.9393C16.6597 37.8228 16.6672 37.7066 16.6672 37.5915C16.6672 36.6524 16.1683 35.7697 15.3336 35.2745C14.4727 34.7642 14 33.8695 14 32.9548C14 32.4482 14.1448 31.9359 14.4488 31.4787C14.7477 31.0292 14.8973 30.5146 14.8973 30C14.8973 29.4854 14.7477 28.9708 14.4488 28.5213C14.1448 28.0641 14 27.5518 14 27.0452C14 26.1305 14.4727 25.2358 15.3336 24.7255C16.1683 24.2303 16.6672 23.3476 16.6672 22.4085C16.6672 22.2934 16.6597 22.1772 16.6444 22.0607C16.6287 21.9426 16.6212 21.8251 16.6212 21.7093C16.6212 20.3352 17.6883 19.1515 19.1235 19.017C19.6688 18.9655 20.1729 18.7589 20.5839 18.4382C20.9949 18.1176 21.3126 17.6819 21.4847 17.1728C21.8708 16.0322 22.9536 15.3156 24.111 15.3156C24.4283 15.3156 24.7514 15.3697 25.0674 15.4835C25.3792 15.5958 25.703 15.6507 26.0237 15.6507C26.7599 15.6507 27.4811 15.3627 28.012 14.8253C28.5556 14.2749 29.2778 14 30 14C30.7222 14 31.4444 14.2749 31.988 14.8253C32.7501 15.5965 33.9048 15.8546 34.9327 15.4835C35.2486 15.3697 35.5717 15.3156 35.889 15.3156C37.0464 15.3156 38.1292 16.0322 38.5154 17.1728C38.6875 17.6819 39.0051 18.1176 39.4162 18.4382C39.8272 18.7589 40.3312 18.9655 40.8766 19.017C42.3117 19.1515 43.3789 20.3352 43.3789 21.7093C43.3789 21.8251 43.3713 21.9426 43.3557 22.0607C43.3403 22.1772 43.3328 22.2934 43.3328 22.4085C43.3328 23.3476 43.8318 24.2303 44.6664 24.7255C45.5272 25.2358 46 26.1305 46 27.0452C46 27.5518 45.8553 28.0641 45.5512 28.5213C45.2523 28.9708 45.1028 29.4854 45.1028 30C45.1028 30.5146 45.2523 31.0292 45.5512 31.4787Z" fill="url(#paint0_linear_2899_77774)" />
		</g>
		<mask id="mask1_2899_77774" style="mask-type:luminance" maskUnits="userSpaceOnUse" x="21" y="23" width="18" height="16">
			<path d="M27.5691 38.2188L21.9556 32.7221V31.9339L24.3655 30.3623L27.3065 33.242L35.4023 23.482L38.0479 24.7978V25.586L27.5691 38.2188Z" fill="white" />
		</mask>
		<g mask="url(#mask1_2899_77774)">
			<path d="M27.5691 38.2188L21.9556 32.7221V31.9339L24.3655 30.3623L27.3065 33.242L35.4023 23.482L38.0479 24.7978V25.586L27.5691 38.2188Z" fill="url(#paint1_linear_2899_77774)" />
		</g>
		<path d="M27.5701 37.4141L21.9565 31.9174L24.3665 29.5576L27.3075 32.4374L35.4033 22.6773L38.0489 24.7813L27.5701 37.4141Z" fill="white" />
	</g>
	<defs>
		<filter id="filter0_d_2899_77774" x="10" y="14" width="40" height="40" filterUnits="userSpaceOnUse" color-interpolation-filters="sRGB">
			<feFlood flood-opacity="0" result="BackgroundImageFix" />
			<feColorMatrix in="SourceAlpha" type="matrix" values="0 0 0 0 0 0 0 0 0 0 0 0 0 0 0 0 0 0 127 0" result="hardAlpha" />
			<feOffset dy="4" />
			<feGaussianBlur stdDeviation="2" />
			<feComposite in2="hardAlpha" operator="out" />
			<feColorMatrix type="matrix" values="0 0 0 0 0 0 0 0 0 0 0 0 0 0 0 0 0 0 0.25 0" />
			<feBlend mode="normal" in2="BackgroundImageFix" result="effect1_dropShadow_2899_77774" />
			<feBlend mode="normal" in="SourceGraphic" in2="effect1_dropShadow_2899_77774" result="shape" />
		</filter>
		<linearGradient id="paint0_linear_2899_77774" x1="39.9658" y1="39.2449" x2="19.721" y2="19.6578" gradientUnits="userSpaceOnUse">
			<stop stop-color="#35AB4F" />
			<stop offset="1" stop-color="#98D4A5" />
		</linearGradient>
		<linearGradient id="paint1_linear_2899_77774" x1="28.065" y1="23.6092" x2="32.075" y2="34.7322" gradientUnits="userSpaceOnUse">
			<stop stop-color="#35AB4F" />
			<stop offset="1" stop-color="#35AB4F" />
		</linearGradient>
	</defs>
</svg>
